<svg width="23" height="23" viewBox="0 0 23 23" fill="none" xmlns="http://www.w3.org/2000/svg">
<path d="M0.464844 9.16412C0.464844 7.31749 0.87572 5.6232 1.69747 4.08126C2.51923 2.53932 3.62259 1.26052 5.00757 0.244873L6.30944 2.01764C5.20146 2.83016 4.31969 3.85505 3.66414 5.09229C3.00858 6.32954 2.68081 7.68681 2.68081 9.16412H0.464844ZM20.4085 9.16412C20.4085 7.68681 20.0807 6.32954 19.4252 5.09229C18.7696 3.85505 17.8878 2.83016 16.7799 2.01764L18.0817 0.244873C19.4667 1.26052 20.5701 2.53932 21.3918 4.08126C22.2136 5.6232 22.6245 7.31749 22.6245 9.16412H20.4085ZM2.68081 19.136V16.92H4.89677V9.16412C4.89677 7.63141 5.35843 6.26952 6.28174 5.07844C7.20506 3.88736 8.40538 3.10716 9.88268 2.73783V1.96224C9.88268 1.50059 10.0443 1.10818 10.3674 0.785014C10.6906 0.461853 11.083 0.300272 11.5447 0.300272C12.0063 0.300272 12.3987 0.461853 12.7219 0.785014C13.045 1.10818 13.2066 1.50059 13.2066 1.96224V2.73783C14.6839 3.10716 15.8842 3.88736 16.8076 5.07844C17.7309 6.26952 18.1925 7.63141 18.1925 9.16412V16.92H20.4085V19.136H2.68081ZM11.5447 22.4599C10.9353 22.4599 10.4136 22.2429 9.97963 21.809C9.54567 21.375 9.32869 20.8533 9.32869 20.2439H13.7606C13.7606 20.8533 13.5436 21.375 13.1097 21.809C12.6757 22.2429 12.154 22.4599 11.5447 22.4599ZM7.11273 16.92H15.9766V9.16412C15.9766 7.94534 15.5426 6.90199 14.6747 6.03407C13.8068 5.16616 12.7634 4.7322 11.5447 4.7322C10.3259 4.7322 9.28253 5.16616 8.41461 6.03407C7.54669 6.90199 7.11273 7.94534 7.11273 9.16412V16.92Z" fill="#FF3334"/>
</svg>
