<svg width="22" height="23" viewBox="0 0 22 23" fill="none" xmlns="http://www.w3.org/2000/svg">
<path d="M10.4701 21.8861C8.75894 21.8861 7.18533 21.4966 5.74922 20.7174C4.31311 19.9382 3.13672 18.8993 2.22005 17.6007V20.0528H0.386719V14.5528H5.88672V16.3861H3.61797C4.3513 17.4861 5.31762 18.3723 6.51693 19.0445C7.71623 19.7167 9.03394 20.0528 10.4701 20.0528C11.6159 20.0528 12.6891 19.8351 13.6898 19.3997C14.6905 18.9643 15.5614 18.3761 16.3023 17.6351C17.0433 16.8941 17.6315 16.0233 18.0669 15.0226C18.5023 14.0219 18.7201 12.9486 18.7201 11.8028H20.5534C20.5534 13.1931 20.2898 14.4993 19.7628 15.7216C19.2357 16.9438 18.5138 18.0132 17.5971 18.9299C16.6805 19.8466 15.611 20.5684 14.3888 21.0955C13.1666 21.6226 11.8603 21.8861 10.4701 21.8861ZM9.64505 18.2195V17.0278C8.927 16.8598 8.34262 16.5504 7.89193 16.0997C7.44123 15.649 7.10894 15.057 6.89505 14.3236L8.40755 13.7278C8.59089 14.3542 8.87734 14.824 9.26693 15.1372C9.65651 15.4504 10.1034 15.607 10.6076 15.607C11.1117 15.607 11.5433 15.4886 11.9023 15.2518C12.2614 15.015 12.4409 14.6445 12.4409 14.1403C12.4409 13.6973 12.2537 13.3382 11.8794 13.0632C11.5051 12.7882 10.8367 12.475 9.87422 12.1236C8.97283 11.8028 8.31207 11.4209 7.89193 10.9778C7.47179 10.5348 7.26172 9.9542 7.26172 9.23615C7.26172 8.60976 7.47943 8.04066 7.91484 7.52886C8.35026 7.01705 8.94227 6.68476 9.69088 6.53198V5.38615H11.2951V6.53198C11.8451 6.57782 12.3454 6.79934 12.7961 7.19657C13.2468 7.59379 13.5562 8.05976 13.7242 8.59448L12.2576 9.19032C12.1353 8.83893 11.9367 8.54483 11.6617 8.30802C11.3867 8.07122 11.0048 7.95282 10.5159 7.95282C9.98116 7.95282 9.57248 8.0674 9.28984 8.29657C9.0072 8.52573 8.86588 8.83893 8.86588 9.23615C8.86588 9.63337 9.04158 9.94657 9.39297 10.1757C9.74436 10.4049 10.3784 10.6723 11.2951 10.9778C12.3951 11.375 13.1284 11.841 13.4951 12.3757C13.8617 12.9105 14.0451 13.4986 14.0451 14.1403C14.0451 14.5834 13.9687 14.973 13.8159 15.3091C13.6631 15.6452 13.4607 15.9316 13.2086 16.1684C12.9565 16.4052 12.6624 16.5962 12.3263 16.7414C11.9902 16.8865 11.6312 16.9973 11.2492 17.0736V18.2195H9.64505ZM0.386719 11.8028C0.386719 10.4125 0.65026 9.10629 1.17734 7.88407C1.70443 6.66184 2.4263 5.5924 3.34297 4.67573C4.25964 3.75907 5.32908 3.03719 6.5513 2.51011C7.77352 1.98302 9.07977 1.71948 10.4701 1.71948C12.1812 1.71948 13.7548 2.10907 15.1909 2.88823C16.627 3.6674 17.8034 4.70629 18.7201 6.0049V3.55282H20.5534V9.05282H15.0534V7.21948H17.3221C16.5888 6.11948 15.6225 5.23337 14.4232 4.56115C13.2239 3.88893 11.9062 3.55282 10.4701 3.55282C9.32422 3.55282 8.25095 3.77052 7.25026 4.20594C6.24957 4.64136 5.37873 5.22955 4.63776 5.97052C3.89679 6.7115 3.30859 7.58233 2.87318 8.58302C2.43776 9.58372 2.22005 10.657 2.22005 11.8028H0.386719Z" fill="#FF3334"/>
</svg>
