<svg width="22" height="26" viewBox="0 0 22 26" fill="none" xmlns="http://www.w3.org/2000/svg">
<path id="Vector" d="M6.08713 20.7765H16.6129V18.2281H6.08713V20.7765ZM6.08713 15.6798H16.6129V13.1314H6.08713V15.6798ZM3.45567 25.8732C2.73202 25.8732 2.11254 25.6237 1.59721 25.1246C1.08188 24.6256 0.824219 24.0257 0.824219 23.3249V2.938C0.824219 2.23721 1.08188 1.63728 1.59721 1.13823C2.11254 0.639175 2.73202 0.389648 3.45567 0.389648H13.9815L21.8759 8.03472V23.3249C21.8759 24.0257 21.6182 24.6256 21.1029 25.1246C20.5875 25.6237 19.9681 25.8732 19.2444 25.8732H3.45567ZM12.6658 9.3089V2.938H3.45567V23.3249H19.2444V9.3089H12.6658Z" fill="#FF3334"/>
</svg>
