<svg width="23" height="24" viewBox="0 0 23 24" fill="none" xmlns="http://www.w3.org/2000/svg">
<path d="M3.04018 7.18768H18.5519V4.97172H3.04018V7.18768ZM3.04018 22.6994C2.43079 22.6994 1.90912 22.4824 1.47516 22.0485C1.0412 21.6145 0.824219 21.0928 0.824219 20.4835V4.97172C0.824219 4.36233 1.0412 3.84066 1.47516 3.4067C1.90912 2.97274 2.43079 2.75576 3.04018 2.75576H4.14816V0.539795H6.36412V2.75576H15.228V0.539795H17.4439V2.75576H18.5519C19.1613 2.75576 19.683 2.97274 20.1169 3.4067C20.5509 3.84066 20.7679 4.36233 20.7679 4.97172V11.2595C20.417 11.0933 20.0569 10.9548 19.6876 10.844C19.3183 10.7332 18.9397 10.6501 18.5519 10.5947V9.40364H3.04018V20.4835H10.0205C10.1497 20.8897 10.3021 21.2775 10.4775 21.6468C10.6529 22.0162 10.8607 22.367 11.1007 22.6994H3.04018ZM17.4439 23.8074C15.9112 23.8074 14.6047 23.2673 13.5245 22.187C12.4442 21.1067 11.904 19.8002 11.904 18.2675C11.904 16.7348 12.4442 15.4283 13.5245 14.348C14.6047 13.2677 15.9112 12.7276 17.4439 12.7276C18.9766 12.7276 20.2831 13.2677 21.3634 14.348C22.4437 15.4283 22.9838 16.7348 22.9838 18.2675C22.9838 19.8002 22.4437 21.1067 21.3634 22.187C20.2831 23.2673 18.9766 23.8074 17.4439 23.8074ZM19.2998 20.8989L20.0754 20.1234L17.9979 18.0459V14.9436H16.8899V18.4891L19.2998 20.8989Z" fill="#FF3334"/>
</svg>
