<svg width="25" height="19" viewBox="0 0 25 19" fill="none" xmlns="http://www.w3.org/2000/svg">
<path d="M14.8686 10.7277C13.9453 10.7277 13.1605 10.4045 12.5141 9.75821C11.8678 9.11188 11.5447 8.32706 11.5447 7.40375C11.5447 6.48043 11.8678 5.69561 12.5141 5.04929C13.1605 4.40296 13.9453 4.0798 14.8686 4.0798C15.7919 4.0798 16.5767 4.40296 17.2231 5.04929C17.8694 5.69561 18.1925 6.48043 18.1925 7.40375C18.1925 8.32706 17.8694 9.11188 17.2231 9.75821C16.5767 10.4045 15.7919 10.7277 14.8686 10.7277ZM7.11273 14.0516C6.50334 14.0516 5.98167 13.8347 5.54771 13.4007C5.11375 12.9667 4.89677 12.4451 4.89677 11.8357V2.97182C4.89677 2.36243 5.11375 1.84076 5.54771 1.4068C5.98167 0.972839 6.50334 0.755859 7.11273 0.755859H22.6245C23.2339 0.755859 23.7555 0.972839 24.1895 1.4068C24.6234 1.84076 24.8404 2.36243 24.8404 2.97182V11.8357C24.8404 12.4451 24.6234 12.9667 24.1895 13.4007C23.7555 13.8347 23.2339 14.0516 22.6245 14.0516H7.11273ZM9.32869 11.8357H20.4085C20.4085 11.2263 20.6255 10.7046 21.0594 10.2706C21.4934 9.83669 22.0151 9.61971 22.6245 9.61971V5.18778C22.0151 5.18778 21.4934 4.9708 21.0594 4.53684C20.6255 4.10289 20.4085 3.58121 20.4085 2.97182H9.32869C9.32869 3.58121 9.11171 4.10289 8.67775 4.53684C8.24379 4.9708 7.72212 5.18778 7.11273 5.18778V9.61971C7.72212 9.61971 8.24379 9.83669 8.67775 10.2706C9.11171 10.7046 9.32869 11.2263 9.32869 11.8357ZM21.5165 18.4836H2.68081C2.07142 18.4836 1.54974 18.2666 1.11578 17.8326C0.681823 17.3987 0.464844 16.877 0.464844 16.2676V4.0798H2.68081V16.2676H21.5165V18.4836Z" fill="#FF3334"/>
</svg>
