<svg width="23" height="18" viewBox="0 0 23 18" fill="none" xmlns="http://www.w3.org/2000/svg">
<path d="M5.58678 13.2206C6.3758 13.2206 7.14383 13.3115 7.89088 13.4933C8.63793 13.6751 9.38078 13.9478 10.1194 14.3113V4.0798C9.43114 3.66431 8.70088 3.35269 7.92865 3.14494C7.15642 2.9372 6.3758 2.83332 5.58678 2.83332C4.98243 2.83332 4.38227 2.89392 3.78631 3.0151C3.19035 3.13629 2.61538 3.31807 2.06139 3.56044V13.8439C2.64895 13.6361 3.23232 13.4803 3.81149 13.3765C4.39066 13.2726 4.98243 13.2206 5.58678 13.2206ZM12.1339 14.3113C12.8726 13.9478 13.6154 13.6751 14.3625 13.4933C15.1095 13.3115 15.8776 13.2206 16.6666 13.2206C17.2709 13.2206 17.8627 13.2726 18.4419 13.3765C19.0211 13.4803 19.6044 13.6361 20.192 13.8439V3.56044C19.638 3.31807 19.063 3.13629 18.4671 3.0151C17.8711 2.89392 17.2709 2.83332 16.6666 2.83332C15.8776 2.83332 15.097 2.9372 14.3247 3.14494C13.5525 3.35269 12.8222 3.66431 12.1339 4.0798V14.3113ZM11.1267 17.3756C10.3209 16.7177 9.44793 16.207 8.50782 15.8434C7.56772 15.4799 6.59404 15.2981 5.58678 15.2981C4.8817 15.2981 4.18921 15.3933 3.50932 15.5838C2.82942 15.7742 2.1789 16.0425 1.55776 16.3888C1.20522 16.5792 0.86527 16.5706 0.537912 16.3628C0.210554 16.1551 0.046875 15.8521 0.046875 15.4539V2.9372C0.046875 2.74676 0.0930409 2.56498 0.185373 2.39186C0.277704 2.21874 0.416202 2.0889 0.600866 2.00234C1.37309 1.58685 2.1789 1.27523 3.01828 1.06748C3.85766 0.859733 4.71383 0.755859 5.58678 0.755859C6.56046 0.755859 7.51316 0.885701 8.44487 1.14538C9.37658 1.40507 10.2705 1.79459 11.1267 2.31396C11.9829 1.79459 12.8768 1.40507 13.8085 1.14538C14.7402 0.885701 15.6929 0.755859 16.6666 0.755859C17.5395 0.755859 18.3957 0.859733 19.2351 1.06748C20.0745 1.27523 20.8803 1.58685 21.6525 2.00234C21.8372 2.0889 21.9757 2.21874 22.068 2.39186C22.1603 2.56498 22.2065 2.74676 22.2065 2.9372V15.4539C22.2065 15.8521 22.0428 16.1551 21.7155 16.3628C21.3881 16.5706 21.0482 16.5792 20.6956 16.3888C20.0745 16.0425 19.424 15.7742 18.7441 15.5838C18.0642 15.3933 17.3717 15.2981 16.6666 15.2981C15.6593 15.2981 14.6857 15.4799 13.7456 15.8434C12.8054 16.207 11.9325 16.7177 11.1267 17.3756Z" fill="#FF3334"/>
</svg>
