<svg width="23" height="23" viewBox="0 0 23 23" fill="none" xmlns="http://www.w3.org/2000/svg">
<path d="M11.1267 22.4602C9.59398 22.4602 8.1536 22.1693 6.80556 21.5876C5.45752 21.0059 4.2849 20.2165 3.28772 19.2193C2.29054 18.2221 1.5011 17.0495 0.91941 15.7015C0.33772 14.3534 0.046875 12.9131 0.046875 11.3803C0.046875 9.84764 0.33772 8.40727 0.91941 7.05922C1.5011 5.71118 2.29054 4.53856 3.28772 3.54138C4.2849 2.5442 5.45752 1.75476 6.80556 1.17307C8.1536 0.591382 9.59398 0.300537 11.1267 0.300537C12.327 0.300537 13.4627 0.475967 14.5337 0.826828C15.6048 1.17769 16.5927 1.66705 17.4976 2.2949L15.891 3.92918C15.1893 3.48598 14.4414 3.13974 13.6473 2.89044C12.8533 2.64115 12.0131 2.5165 11.1267 2.5165C8.67066 2.5165 6.57935 3.3798 4.85274 5.10641C3.12614 6.83301 2.26284 8.92432 2.26284 11.3803C2.26284 13.8364 3.12614 15.9277 4.85274 17.6543C6.57935 19.3809 8.67066 20.2442 11.1267 20.2442C13.5827 20.2442 15.674 19.3809 17.4006 17.6543C19.1272 15.9277 19.9905 13.8364 19.9905 11.3803C19.9905 11.048 19.9721 10.7156 19.9351 10.3832C19.8982 10.0508 19.8428 9.72761 19.7689 9.41368L21.5694 7.61321C21.7725 8.20414 21.9295 8.81353 22.0403 9.44138C22.1511 10.0692 22.2065 10.7156 22.2065 11.3803C22.2065 12.9131 21.9157 14.3534 21.334 15.7015C20.7523 17.0495 19.9628 18.2221 18.9657 19.2193C17.9685 20.2165 16.7959 21.0059 15.4478 21.5876C14.0998 22.1693 12.6594 22.4602 11.1267 22.4602ZM9.57551 16.4771L4.86659 11.7681L6.41777 10.217L9.57551 13.3747L20.6553 2.2672L22.2065 3.81838L9.57551 16.4771Z" fill="#FF3334"/>
</svg>
