<svg width="23" height="23" viewBox="0 0 23 23" fill="none" xmlns="http://www.w3.org/2000/svg">
<path d="M2.32143 22.46C1.71204 22.46 1.19037 22.2431 0.756408 21.8091C0.322448 21.3751 0.105469 20.8535 0.105469 20.2441V8.05628C0.105469 7.44689 0.322448 6.92522 0.756408 6.49126C1.19037 6.0573 1.71204 5.84032 2.32143 5.84032H7.86134V2.51638C7.86134 1.90699 8.07832 1.38531 8.51228 0.951354C8.94623 0.517395 9.46791 0.300415 10.0773 0.300415H12.2933C12.9027 0.300415 13.4243 0.517395 13.8583 0.951354C14.2922 1.38531 14.5092 1.90699 14.5092 2.51638V5.84032H20.0491C20.6585 5.84032 21.1802 6.0573 21.6142 6.49126C22.0481 6.92522 22.2651 7.44689 22.2651 8.05628V20.2441C22.2651 20.8535 22.0481 21.3751 21.6142 21.8091C21.1802 22.2431 20.6585 22.46 20.0491 22.46H2.32143ZM2.32143 20.2441H20.0491V8.05628H14.5092C14.5092 8.66567 14.2922 9.18735 13.8583 9.62131C13.4243 10.0553 12.9027 10.2722 12.2933 10.2722H10.0773C9.46791 10.2722 8.94623 10.0553 8.51228 9.62131C8.07832 9.18735 7.86134 8.66567 7.86134 8.05628H2.32143V20.2441ZM4.53739 18.0281H11.1853V17.5295C11.1853 17.2156 11.0976 16.9247 10.9221 16.657C10.7467 16.3892 10.502 16.1815 10.1881 16.0337C9.81877 15.8675 9.44483 15.7429 9.06627 15.6598C8.68771 15.5767 8.28606 15.5352 7.86134 15.5352C7.43661 15.5352 7.03497 15.5767 6.65641 15.6598C6.27785 15.7429 5.9039 15.8675 5.53458 16.0337C5.22065 16.1815 4.97597 16.3892 4.80054 16.657C4.62511 16.9247 4.53739 17.2156 4.53739 17.5295V18.0281ZM13.4012 16.3661H17.8332V14.7042H13.4012V16.3661ZM7.86134 14.7042C8.323 14.7042 8.71541 14.5426 9.03857 14.2194C9.36173 13.8963 9.52331 13.5039 9.52331 13.0422C9.52331 12.5805 9.36173 12.1881 9.03857 11.865C8.71541 11.5418 8.323 11.3802 7.86134 11.3802C7.39968 11.3802 7.00727 11.5418 6.68411 11.865C6.36095 12.1881 6.19937 12.5805 6.19937 13.0422C6.19937 13.5039 6.36095 13.8963 6.68411 14.2194C7.00727 14.5426 7.39968 14.7042 7.86134 14.7042ZM13.4012 13.0422H17.8332V11.3802H13.4012V13.0422ZM10.0773 8.05628H12.2933V2.51638H10.0773V8.05628Z" fill="#FF3334"/>
</svg>
