<svg width="22" height="25" viewBox="0 0 22 25" fill="none" xmlns="http://www.w3.org/2000/svg">
<path d="M2.80392 24.7654C2.16067 24.7654 1.61001 24.5267 1.15195 24.0493C0.693878 23.572 0.464844 22.9981 0.464844 22.3278V5.26489C0.464844 4.59456 0.693878 4.02072 1.15195 3.54336C1.61001 3.06601 2.16067 2.82733 2.80392 2.82733H3.97345V0.389771H6.31252V2.82733H15.6688V0.389771H18.0079V2.82733H19.1774C19.8207 2.82733 20.3713 3.06601 20.8294 3.54336C21.2875 4.02072 21.5165 4.59456 21.5165 5.26489V22.3278C21.5165 22.9981 21.2875 23.572 20.8294 24.0493C20.3713 24.5267 19.8207 24.7654 19.1774 24.7654H2.80392ZM2.80392 22.3278H19.1774V10.14H2.80392V22.3278ZM2.80392 7.70245H19.1774V5.26489H2.80392V7.70245ZM10.9907 15.0151C10.6593 15.0151 10.3815 14.8983 10.1574 14.6647C9.93321 14.4311 9.82113 14.1417 9.82113 13.7963C9.82113 13.451 9.93321 13.1616 10.1574 12.928C10.3815 12.6944 10.6593 12.5776 10.9907 12.5776C11.322 12.5776 11.5998 12.6944 11.824 12.928C12.0481 13.1616 12.1602 13.451 12.1602 13.7963C12.1602 14.1417 12.0481 14.4311 11.824 14.6647C11.5998 14.8983 11.322 15.0151 10.9907 15.0151ZM6.31252 15.0151C5.98115 15.0151 5.70339 14.8983 5.47923 14.6647C5.25507 14.4311 5.14299 14.1417 5.14299 13.7963C5.14299 13.451 5.25507 13.1616 5.47923 12.928C5.70339 12.6944 5.98115 12.5776 6.31252 12.5776C6.64389 12.5776 6.92166 12.6944 7.14582 12.928C7.36998 13.1616 7.48206 13.451 7.48206 13.7963C7.48206 14.1417 7.36998 14.4311 7.14582 14.6647C6.92166 14.8983 6.64389 15.0151 6.31252 15.0151ZM15.6688 15.0151C15.3374 15.0151 15.0597 14.8983 14.8355 14.6647C14.6114 14.4311 14.4993 14.1417 14.4993 13.7963C14.4993 13.451 14.6114 13.1616 14.8355 12.928C15.0597 12.6944 15.3374 12.5776 15.6688 12.5776C16.0002 12.5776 16.2779 12.6944 16.5021 12.928C16.7263 13.1616 16.8383 13.451 16.8383 13.7963C16.8383 14.1417 16.7263 14.4311 16.5021 14.6647C16.2779 14.8983 16.0002 15.0151 15.6688 15.0151ZM10.9907 19.8902C10.6593 19.8902 10.3815 19.7734 10.1574 19.5398C9.93321 19.3062 9.82113 19.0168 9.82113 18.6715C9.82113 18.3261 9.93321 18.0367 10.1574 17.8031C10.3815 17.5695 10.6593 17.4527 10.9907 17.4527C11.322 17.4527 11.5998 17.5695 11.824 17.8031C12.0481 18.0367 12.1602 18.3261 12.1602 18.6715C12.1602 19.0168 12.0481 19.3062 11.824 19.5398C11.5998 19.7734 11.322 19.8902 10.9907 19.8902ZM6.31252 19.8902C5.98115 19.8902 5.70339 19.7734 5.47923 19.5398C5.25507 19.3062 5.14299 19.0168 5.14299 18.6715C5.14299 18.3261 5.25507 18.0367 5.47923 17.8031C5.70339 17.5695 5.98115 17.4527 6.31252 17.4527C6.64389 17.4527 6.92166 17.5695 7.14582 17.8031C7.36998 18.0367 7.48206 18.3261 7.48206 18.6715C7.48206 19.0168 7.36998 19.3062 7.14582 19.5398C6.92166 19.7734 6.64389 19.8902 6.31252 19.8902ZM15.6688 19.8902C15.3374 19.8902 15.0597 19.7734 14.8355 19.5398C14.6114 19.3062 14.4993 19.0168 14.4993 18.6715C14.4993 18.3261 14.6114 18.0367 14.8355 17.8031C15.0597 17.5695 15.3374 17.4527 15.6688 17.4527C16.0002 17.4527 16.2779 17.5695 16.5021 17.8031C16.7263 18.0367 16.8383 18.3261 16.8383 18.6715C16.8383 19.0168 16.7263 19.3062 16.5021 19.5398C16.2779 19.7734 16.0002 19.8902 15.6688 19.8902Z" fill="#FF3334"/>
</svg>
