<svg width="24" height="25" viewBox="0 0 24 25" fill="none" xmlns="http://www.w3.org/2000/svg">
<path d="M17.0061 11.9323C17.3357 11.9323 17.612 11.8149 17.835 11.5802C18.058 11.3455 18.1695 11.0546 18.1695 10.7077C18.1695 10.3607 18.058 10.0698 17.835 9.83512C17.612 9.6004 17.3357 9.48304 17.0061 9.48304C16.6764 9.48304 16.4001 9.6004 16.1772 9.83512C15.9542 10.0698 15.8427 10.3607 15.8427 10.7077C15.8427 11.0546 15.9542 11.3455 16.1772 11.5802C16.4001 11.8149 16.6764 11.9323 17.0061 11.9323ZM7.69903 9.48304H13.5159V7.03382H7.69903V9.48304ZM3.6272 24.1784C2.96795 21.8516 2.3184 19.53 1.67854 17.2134C1.03868 14.8968 0.71875 12.5242 0.71875 10.0953C0.71875 8.21761 1.33922 6.62562 2.58016 5.31937C3.8211 4.01311 5.33349 3.35999 7.11734 3.35999H12.9342C13.4965 2.5844 14.18 1.9823 14.9847 1.55369C15.7894 1.12507 16.6571 0.910767 17.5878 0.910767C18.0725 0.910767 18.4845 1.08936 18.8239 1.44653C19.1632 1.80371 19.3328 2.23743 19.3328 2.74768C19.3328 2.87014 19.3183 2.9926 19.2892 3.11507C19.2601 3.23753 19.2262 3.34978 19.1874 3.45183C19.1099 3.67635 19.0371 3.90596 18.9693 4.14068C18.9014 4.37539 18.8481 4.61521 18.8093 4.86014L21.456 7.64613H23.9864V16.1878L20.6998 17.3206L18.7511 24.1784H12.3526V21.7292H10.0258V24.1784H3.6272ZM5.37227 21.7292H7.69903V19.2799H14.6793V21.7292H17.0061L18.8093 15.4224L21.6596 14.4121V10.0953H20.4962L16.4244 5.80921C16.4244 5.40101 16.4486 5.00811 16.4971 4.63052C16.5456 4.25293 16.6183 3.87024 16.7152 3.48245C16.1529 3.64573 15.6585 3.92637 15.2319 4.32437C14.8053 4.72237 14.4951 5.21731 14.3012 5.80921H7.11734C5.99274 5.80921 5.03295 6.22762 4.23798 7.06444C3.443 7.90125 3.04551 8.91156 3.04551 10.0953C3.04551 12.0955 3.30727 14.0498 3.83079 15.9582C4.35431 17.8665 4.86814 19.7902 5.37227 21.7292Z" fill="#FF3334"/>
</svg>
