<svg width="23" height="23" viewBox="0 0 23 23" fill="none" xmlns="http://www.w3.org/2000/svg">
<path d="M2.50906 22.7653C1.83196 22.7653 1.25232 22.5242 0.77014 22.0421C0.287963 21.5599 0.046875 20.9803 0.046875 20.3032V3.06789C0.046875 2.39079 0.287963 1.81116 0.77014 1.32898C1.25232 0.846801 1.83196 0.605713 2.50906 0.605713H13.5889V3.06789H2.50906V20.3032H19.7443V9.22334H22.2065V20.3032C22.2065 20.9803 21.9654 21.5599 21.4832 22.0421C21.0011 22.5242 20.4214 22.7653 19.7443 22.7653H2.50906ZM17.2821 7.99225V5.53007H14.82V3.06789H17.2821V0.605713H19.7443V3.06789H22.2065V5.53007H19.7443V7.99225H17.2821ZM3.74015 17.841H18.5132L13.8966 11.6855L10.2034 16.6099L7.43342 12.9166L3.74015 17.841Z" fill="#FF3334"/>
</svg>
