<svg width="25" height="24" viewBox="0 0 25 24" fill="none" xmlns="http://www.w3.org/2000/svg">
<path d="M5.30323 17.7595C6.29211 17.0033 7.39732 16.4071 8.61887 15.9708C9.84042 15.5346 11.1201 15.3164 12.458 15.3164C13.7959 15.3164 15.0756 15.5346 16.2972 15.9708C17.5187 16.4071 18.6239 17.0033 19.6128 17.7595C20.2914 16.9646 20.8198 16.063 21.1979 15.0547C21.576 14.0464 21.7651 12.9703 21.7651 11.8263C21.7651 9.24748 20.8586 7.0516 19.0457 5.23867C17.2327 3.42573 15.0368 2.51927 12.458 2.51927C9.8792 2.51927 7.68331 3.42573 5.87038 5.23867C4.05745 7.0516 3.15098 9.24748 3.15098 11.8263C3.15098 12.9703 3.34003 14.0464 3.71813 15.0547C4.09623 16.063 4.62459 16.9646 5.30323 17.7595ZM12.458 12.9897C11.314 12.9897 10.3494 12.597 9.56411 11.8118C8.77883 11.0265 8.38619 10.0618 8.38619 8.91786C8.38619 7.77387 8.77883 6.80923 9.56411 6.02395C10.3494 5.23867 11.314 4.84603 12.458 4.84603C13.602 4.84603 14.5666 5.23867 15.3519 6.02395C16.1372 6.80923 16.5299 7.77387 16.5299 8.91786C16.5299 10.0618 16.1372 11.0265 15.3519 11.8118C14.5666 12.597 13.602 12.9897 12.458 12.9897ZM12.458 23.4601C10.8487 23.4601 9.33628 23.1547 7.92084 22.5439C6.50539 21.9332 5.27415 21.1043 4.22711 20.0572C3.18006 19.0102 2.35116 17.7789 1.74038 16.3635C1.12961 14.948 0.824219 13.4356 0.824219 11.8263C0.824219 10.217 1.12961 8.70457 1.74038 7.28912C2.35116 5.87368 3.18006 4.64243 4.22711 3.59539C5.27415 2.54835 6.50539 1.71944 7.92084 1.10867C9.33628 0.497892 10.8487 0.192505 12.458 0.192505C14.0674 0.192505 15.5798 0.497892 16.9952 1.10867C18.4107 1.71944 19.6419 2.54835 20.6889 3.59539C21.736 4.64243 22.5649 5.87368 23.1757 7.28912C23.7864 8.70457 24.0918 10.217 24.0918 11.8263C24.0918 13.4356 23.7864 14.948 23.1757 16.3635C22.5649 17.7789 21.736 19.0102 20.6889 20.0572C19.6419 21.1043 18.4107 21.9332 16.9952 22.5439C15.5798 23.1547 14.0674 23.4601 12.458 23.4601ZM12.458 21.1333C13.4857 21.1333 14.4552 20.9831 15.3665 20.6825C16.2778 20.382 17.1115 19.9506 17.8677 19.3883C17.1115 18.826 16.2778 18.3946 15.3665 18.094C14.4552 17.7935 13.4857 17.6432 12.458 17.6432C11.4304 17.6432 10.4609 17.7935 9.54957 18.094C8.63826 18.3946 7.8045 18.826 7.0483 19.3883C7.8045 19.9506 8.63826 20.382 9.54957 20.6825C10.4609 20.9831 11.4304 21.1333 12.458 21.1333ZM12.458 10.6629C12.9622 10.6629 13.379 10.4981 13.7087 10.1685C14.0383 9.83887 14.2031 9.42199 14.2031 8.91786C14.2031 8.41372 14.0383 7.99685 13.7087 7.66722C13.379 7.3376 12.9622 7.17279 12.458 7.17279C11.9539 7.17279 11.537 7.3376 11.2074 7.66722C10.8778 7.99685 10.713 8.41372 10.713 8.91786C10.713 9.42199 10.8778 9.83887 11.2074 10.1685C11.537 10.4981 11.9539 10.6629 12.458 10.6629Z" fill="#FF3334"/>
</svg>
