<svg width="23" height="23" viewBox="0 0 23 23" fill="none" xmlns="http://www.w3.org/2000/svg">
<path d="M13.5728 22.1425C13.148 22.5673 12.6218 22.7796 11.9939 22.7796C11.366 22.7796 10.8397 22.5673 10.415 22.1425L0.664789 12.3923C0.461659 12.1892 0.300078 11.9491 0.180047 11.6721C0.0600156 11.3951 0 11.0997 0 10.7857V2.86367C0 2.25428 0.21698 1.7326 0.650939 1.29864C1.0849 0.864685 1.60657 0.647705 2.21596 0.647705H10.138C10.452 0.647705 10.7474 0.707721 11.0244 0.827752C11.3014 0.947783 11.5415 1.10936 11.7446 1.31249L21.4948 11.0904C21.9196 11.5152 22.1319 12.0368 22.1319 12.6555C22.1319 13.2741 21.9196 13.7957 21.4948 14.2205L13.5728 22.1425ZM11.9939 20.5914L19.916 12.6693L10.138 2.86367H2.21596V10.7857L11.9939 20.5914ZM4.98592 7.29559C5.44757 7.29559 5.83998 7.13401 6.16315 6.81085C6.48631 6.48769 6.64789 6.09528 6.64789 5.63362C6.64789 5.17196 6.48631 4.77955 6.16315 4.45639C5.83998 4.13323 5.44757 3.97165 4.98592 3.97165C4.52426 3.97165 4.13185 4.13323 3.80869 4.45639C3.48552 4.77955 3.32394 5.17196 3.32394 5.63362C3.32394 6.09528 3.48552 6.48769 3.80869 6.81085C4.13185 7.13401 4.52426 7.29559 4.98592 7.29559Z" fill="#FF3334"/>
</svg>
