<svg width="59" height="59" viewBox="0 0 59 59" fill="none" xmlns="http://www.w3.org/2000/svg">
<path id="Vector" d="M44.25 44.25C45.4792 44.25 46.524 43.8198 47.3844 42.9594C48.2448 42.099 48.675 41.0542 48.675 39.825C48.675 38.5958 48.2448 37.551 47.3844 36.6906C46.524 35.8302 45.4792 35.4 44.25 35.4C43.0208 35.4 41.976 35.8302 41.1156 36.6906C40.2552 37.551 39.825 38.5958 39.825 39.825C39.825 41.0542 40.2552 42.099 41.1156 42.9594C41.976 43.8198 43.0208 44.25 44.25 44.25ZM44.25 53.1C45.725 53.1 47.1017 52.7558 48.38 52.0675C49.6583 51.3792 50.7154 50.4204 51.5512 49.1912C50.4204 48.5029 49.2404 47.999 48.0112 47.6794C46.7821 47.3598 45.5283 47.2 44.25 47.2C42.9717 47.2 41.7179 47.3598 40.4887 47.6794C39.2596 47.999 38.0796 48.5029 36.9487 49.1912C37.7846 50.4204 38.8417 51.3792 40.12 52.0675C41.3983 52.7558 42.775 53.1 44.25 53.1ZM5.9 53.1C4.2775 53.1 2.88854 52.5223 1.73312 51.3669C0.577708 50.2115 0 48.8225 0 47.2V5.9C0 4.2775 0.577708 2.88854 1.73312 1.73312C2.88854 0.577708 4.2775 0 5.9 0H47.2C48.8225 0 50.2115 0.577708 51.3669 1.73312C52.5223 2.88854 53.1 4.2775 53.1 5.9V25.665C52.1658 25.2225 51.2071 24.8415 50.2237 24.5219C49.2404 24.2023 48.2325 23.9687 47.2 23.8212V5.9H5.9V47.2H23.7475C23.895 48.2817 24.1285 49.3142 24.4481 50.2975C24.7677 51.2808 25.1487 52.215 25.5912 53.1H5.9ZM5.9 44.25V47.2V5.9V23.8212V23.6V44.25ZM11.8 41.3H23.8212C23.9687 40.2675 24.2023 39.2596 24.5219 38.2762C24.8415 37.2929 25.1979 36.3342 25.5912 35.4H11.8V41.3ZM11.8 29.5H29.795C31.3683 28.025 33.126 26.7958 35.0681 25.8125C37.0102 24.8292 39.0875 24.1654 41.3 23.8212V23.6H11.8V29.5ZM11.8 17.7H41.3V11.8H11.8V17.7ZM44.25 59C40.1692 59 36.6906 57.5619 33.8144 54.6856C30.9381 51.8094 29.5 48.3308 29.5 44.25C29.5 40.1692 30.9381 36.6906 33.8144 33.8144C36.6906 30.9381 40.1692 29.5 44.25 29.5C48.3308 29.5 51.8094 30.9381 54.6856 33.8144C57.5619 36.6906 59 40.1692 59 44.25C59 48.3308 57.5619 51.8094 54.6856 54.6856C51.8094 57.5619 48.3308 59 44.25 59Z" fill="white"/>
</svg>
