<svg width="53" height="54" viewBox="0 0 53 54" fill="none" xmlns="http://www.w3.org/2000/svg">
<g id="Group 113">
<path id="Vector" d="M0 54V45.1059C0 43.3588 0.466716 41.7176 1.40015 40.1824C2.33358 38.6471 3.62391 37.4824 5.27114 36.6882C8.07143 35.3118 11.2286 34.1471 14.7427 33.1941C18.2568 32.2412 22.1278 31.7647 26.3557 31.7647C30.5836 31.7647 34.4546 32.2412 37.9687 33.1941C41.4828 34.1471 44.64 35.3118 47.4403 36.6882C49.0875 37.4824 50.3778 38.6471 51.3113 40.1824C52.2447 41.7176 52.7114 43.3588 52.7114 45.1059V54H0ZM6.58893 47.6471H46.1225V45.1059C46.1225 44.5235 45.9715 43.9941 45.6695 43.5176C45.3675 43.0412 44.9694 42.6706 44.4753 42.4059C42.4986 41.4529 39.9591 40.5 36.8568 39.5471C33.7545 38.5941 30.2542 38.1176 26.3557 38.1176C22.4573 38.1176 18.9569 38.5941 15.8546 39.5471C12.7523 40.5 10.2128 41.4529 8.23616 42.4059C7.74199 42.6706 7.34391 43.0412 7.04191 43.5176C6.73992 43.9941 6.58893 44.5235 6.58893 45.1059V47.6471ZM26.3557 28.5882C22.7318 28.5882 19.6295 27.3441 17.0488 24.8559C14.4682 22.3676 13.1779 19.3765 13.1779 15.8824H12.3542C11.8601 15.8824 11.462 15.7368 11.16 15.4456C10.858 15.1544 10.707 14.7706 10.707 14.2941C10.707 13.8176 10.858 13.4338 11.16 13.1426C11.462 12.8515 11.8601 12.7059 12.3542 12.7059H13.1779C13.1779 10.3235 13.7818 8.17941 14.9898 6.27353C16.1978 4.36765 17.7901 2.85882 19.7668 1.74706V4.76471C19.7668 5.24118 19.9178 5.625 20.2198 5.91618C20.5218 6.20735 20.9198 6.35294 21.414 6.35294C21.9082 6.35294 22.3063 6.20735 22.6083 5.91618C22.9102 5.625 23.0612 5.24118 23.0612 4.76471V0.476471C23.5554 0.317647 24.077 0.198529 24.6261 0.119118C25.1752 0.0397059 25.7517 0 26.3557 0C26.9597 0 27.5362 0.0397059 28.0853 0.119118C28.6344 0.198529 29.156 0.317647 29.6502 0.476471V4.76471C29.6502 5.24118 29.8012 5.625 30.1032 5.91618C30.4051 6.20735 30.8032 6.35294 31.2974 6.35294C31.7916 6.35294 32.1897 6.20735 32.4916 5.91618C32.7936 5.625 32.9446 5.24118 32.9446 4.76471V1.74706C34.9213 2.85882 36.5136 4.36765 37.7216 6.27353C38.9296 8.17941 39.5336 10.3235 39.5336 12.7059H40.3572C40.8513 12.7059 41.2494 12.8515 41.5514 13.1426C41.8534 13.4338 42.0044 13.8176 42.0044 14.2941C42.0044 14.7706 41.8534 15.1544 41.5514 15.4456C41.2494 15.7368 40.8513 15.8824 40.3572 15.8824H39.5336C39.5336 19.3765 38.2432 22.3676 35.6626 24.8559C33.0819 27.3441 29.9796 28.5882 26.3557 28.5882ZM26.3557 22.2353C28.1677 22.2353 29.7188 21.6132 31.0091 20.3691C32.2995 19.125 32.9446 17.6294 32.9446 15.8824H19.7668C19.7668 17.6294 20.4119 19.125 21.7023 20.3691C22.9926 21.6132 24.5438 22.2353 26.3557 22.2353Z" fill="black"/>
</g>
</svg>
