<svg width="54" height="54" viewBox="0 0 54 54" fill="none" xmlns="http://www.w3.org/2000/svg">
<path d="M27 27C23.22 27 20.025 25.695 17.415 23.085C14.805 20.475 13.5 17.28 13.5 13.5C13.5 9.72 14.805 6.525 17.415 3.915C20.025 1.305 23.22 0 27 0C30.78 0 33.975 1.305 36.585 3.915C39.195 6.525 40.5 9.72 40.5 13.5C40.5 17.28 39.195 20.475 36.585 23.085C33.975 25.695 30.78 27 27 27ZM0 54V46.44C0 44.28 0.562498 42.2775 1.6875 40.4325C2.8125 38.5875 4.41 37.26 6.48 36.45C9.72 35.1 13.0725 34.0875 16.5375 33.4125C20.0025 32.7375 23.49 32.4 27 32.4C30.51 32.4 33.9975 32.7375 37.4625 33.4125C40.9275 34.0875 44.28 35.1 47.52 36.45C49.59 37.26 51.1875 38.5875 52.3125 40.4325C53.4375 42.2775 54 44.28 54 46.44V54H0Z" fill="white"/>
</svg>
